<?xml version="1.0" encoding="UTF-8"?>
<svg id="Vectorized" xmlns="http://www.w3.org/2000/svg" viewBox="0 0 4211.31 3819.52">
  <defs>
    <style>
      .cls-1 {
        fill: #bc2b30;
      }

      .cls-2 {
        fill: #e02e36;
      }

      .cls-3 {
        fill: #af272c;
      }

      .cls-4 {
        fill: #d32c34;
      }

      .cls-5 {
        fill: #922427;
      }

      .cls-6 {
        fill: #9c2629;
      }

      .cls-7 {
        fill: #c82c32;
      }
    </style>
  </defs>
  <polygon class="cls-2" points="0 3819.52 1011.76 3819.52 1451.85 3006.07 613.19 2712.34 0 3819.52"/>
  <polygon class="cls-4" points="1052.83 1918.54 1890.61 2195.08 1451.85 3006.07 613.19 2712.34 1052.83 1918.54"/>
  <polygon class="cls-7" points="1502.59 1106.46 2087.75 1365.22 2087.75 1830.68 1890.61 2195.08 1052.83 1918.54 1502.59 1106.46"/>
  <polygon class="cls-3" points="2673.01 1106.46 2087.75 1365.22 2087.75 1830.68 2286.32 2195.08 3122.83 1918.54 2673.01 1106.46"/>
  <polygon class="cls-1" points="2087.75 49.89 1502.59 1106.46 2087.75 1365.22 2673.01 1106.46 2087.75 49.89"/>
  <polygon class="cls-6" points="2728.24 3006.07 2286.32 2195.08 3122.83 1918.54 3562.53 2712.34 2728.24 3006.07"/>
  <polygon class="cls-5" points="3171.49 3819.52 4175.82 3819.52 3562.53 2712.34 2728.24 3006.07 3171.49 3819.52"/>
</svg>